<svg xmlns="http://www.w3.org/2000/svg" fill="none" viewBox="0 0 24 24" id="Vpn-Key-Off-Fill--Streamline-Rounded-Fill-Material" height="24" width="24">
  <desc>
    Vpn Key Off Fill Streamline Icon: https://streamlinehq.com
  </desc>
  <path fill="currentColor" d="m19.8 21.9249 -7.375 -7.35h-0.15c-0.43335 1 -1.08335 1.82085 -1.95 2.4625 -0.86665 0.64165 -1.975 0.9625 -3.325 0.9625 -1.66665 0 -3.083335 -0.58335 -4.25 -1.75s-1.75 -2.58335 -1.75 -4.25c0 -1.1 0.291665 -2.14165 0.875 -3.125 0.583335 -0.98335 1.433335 -1.75 2.55 -2.3l-2.375 -2.375c-0.15 -0.15 -0.225 -0.329165 -0.225 -0.5375 0 -0.20833 0.075 -0.3875 0.225 -0.5375 0.15 -0.15 0.329165 -0.225 0.5375 -0.225s0.3875 0.075 0.5375 0.225l17.75 17.75c0.15 0.15 0.225 0.325 0.225 0.525s-0.075 0.375 -0.225 0.525c-0.15 0.15 -0.32915 0.225 -0.5375 0.225 -0.20835 0 -0.3875 -0.075 -0.5375 -0.225Zm0 -4.25 -7.5 -7.5H21.5c0.41665 0 0.77085 0.14585 1.0625 0.4375 0.29165 0.29165 0.4375 0.64585 0.4375 1.0625v0.65c0 0.41665 -0.14585 0.77085 -0.4375 1.0625 -0.29165 0.29165 -0.64585 0.4375 -1.0625 0.4375h-1.15v2.675c0 0.25 -0.05415 0.475 -0.1625 0.675 -0.10835 0.2 -0.2375 0.36665 -0.3875 0.5Zm-12.8 -3.975c0.48335 0 0.8875 -0.1625 1.2125 -0.4875 0.325 -0.325 0.4875 -0.72915 0.4875 -1.2125 0 -0.18335 -0.0375 -0.38335 -0.1125 -0.6 -0.075 -0.21665 -0.20415 -0.41665 -0.3875 -0.6 -0.16665 -0.18335 -0.3625 -0.3125 -0.5875 -0.3875 -0.225 -0.075 -0.42915 -0.1125 -0.6125 -0.1125 -0.48335 0 -0.8875 0.1625 -1.2125 0.4875 -0.325 0.325 -0.4875 0.72915 -0.4875 1.2125 0 0.48335 0.1625 0.8875 0.4875 1.2125 0.325 0.325 0.72915 0.4875 1.2125 0.4875Z" stroke-width="0.5"></path>
</svg>