<svg xmlns="http://www.w3.org/2000/svg" fill="currentColor" viewBox="0 0 48 48" id="Stop-Circle--Streamline-Ionic-Filled" height="48" width="48">
  <desc>
    Stop Circle Streamline Icon: https://streamlinehq.com
  </desc>
  <path d="M24 0.48C11.0312 0.48 0.48 11.0312 0.48 24S11.0312 47.52 24 47.52 47.52 36.9688 47.52 24 36.9688 0.48 24 0.48Zm9.0462 29.6714c-0.0006 0.7676 -0.3058 1.5035 -0.8485 2.0463 -0.5428 0.5427 -1.2787 0.8479 -2.0463 0.8485H17.8486c-0.7675 -0.0006 -1.5035 -0.3058 -2.0462 -0.8485 -0.5427 -0.5428 -0.848 -1.2787 -0.8485 -2.0463V17.8486c0.0005 -0.7675 0.3058 -1.5035 0.8485 -2.0463s1.2787 -0.8479 2.0462 -0.8484h12.3028c0.7676 0.0005 1.5035 0.3056 2.0463 0.8484 0.5427 0.5428 0.8479 1.2788 0.8485 2.0463v12.3028Z" stroke-width="1"></path>
</svg>