<svg width="420.117" height="64.795" viewBox="0 0 420.117 64.795" xmlns="http://www.w3.org/2000/svg"><g id="svgGroup" stroke-linecap="round" fill-rule="evenodd" font-size="9pt" stroke="#000" fill="#e0e7eb" stroke-width="0.15mm" style="stroke:#107896;stroke-width:0.25mm;"><path d="M 365.283 64.795 L 347.217 64.795 L 328.613 12.939 L 349.219 12.939 L 357.666 39.941 L 363.672 21.24 L 371.436 45.117 L 365.283 64.795 Z M 155.957 64.795 L 134.375 64.795 L 134.375 0 L 155.957 0 L 155.957 64.795 Z M 93.213 64.795 L 78.711 64.795 L 65.771 51.855 L 65.771 25.879 L 78.711 12.939 L 93.213 12.939 L 93.213 25.879 L 87.598 25.879 L 87.598 52.686 L 93.213 52.686 L 93.213 64.795 Z M 293.848 64.795 L 279.346 64.795 L 266.406 51.855 L 266.406 25.879 L 279.346 12.939 L 293.848 12.939 L 293.848 25.879 L 288.232 25.879 L 288.232 52.686 L 293.848 52.686 L 293.848 64.795 Z M 56.201 64.795 L 34.57 64.795 L 34.57 25.879 L 25.293 25.879 L 25.293 20.215 L 32.52 12.939 L 44.531 12.939 L 56.201 24.609 L 56.201 64.795 Z M 256.836 64.795 L 235.205 64.795 L 235.205 25.879 L 225.928 25.879 L 225.928 20.215 L 233.154 12.939 L 245.166 12.939 L 256.836 24.609 L 256.836 64.795 Z M 111.084 64.795 L 96.631 64.795 L 96.631 52.686 L 102.002 52.686 L 102.002 25.879 L 96.631 25.879 L 96.631 12.939 L 111.084 12.939 L 124.023 25.879 L 124.023 51.855 L 111.084 64.795 Z M 311.719 64.795 L 297.266 64.795 L 297.266 52.686 L 302.637 52.686 L 302.637 25.879 L 297.266 25.879 L 297.266 12.939 L 311.719 12.939 L 324.658 25.879 L 324.658 51.855 L 311.719 64.795 Z M 196.875 0 L 159.277 55.615 L 159.277 24.121 L 174.414 0 L 196.875 0 Z M 401.025 64.795 L 381.445 64.795 L 363.965 12.939 L 384.326 12.939 L 401.025 64.795 Z M 21.777 64.795 L 0 64.795 L 0 12.939 L 21.777 12.939 L 21.777 64.795 Z M 222.412 64.795 L 200.635 64.795 L 200.635 12.939 L 222.412 12.939 L 222.412 64.795 Z M 420.117 12.939 L 403.174 61.572 L 394.092 33.643 L 399.902 12.939 L 420.117 12.939 Z M 197.9 64.795 L 174.561 64.795 L 167.236 49.707 L 180.029 30.518 L 197.9 64.795 Z" vector-effect="non-scaling-stroke"/></g></svg>